<svg width="71" height="41" viewBox="0 0 71 41" fill="none" xmlns="http://www.w3.org/2000/svg">
<g filter="url(#filter0_d_65_2)">
<path d="M4 16.11C4 12.99 4.675 10.215 6.025 7.785C7.375 5.325 9.25 3.42 11.65 2.07C14.08 0.689999 16.825 -9.53674e-07 19.885 -9.53674e-07C23.635 -9.53674e-07 26.845 0.989999 29.515 2.97C32.185 4.95 33.97 7.65 34.87 11.07H26.41C25.78 9.75 24.88 8.745 23.71 8.055C22.57 7.365 21.265 7.02 19.795 7.02C17.425 7.02 15.505 7.845 14.035 9.495C12.565 11.145 11.83 13.35 11.83 16.11C11.83 18.87 12.565 21.075 14.035 22.725C15.505 24.375 17.425 25.2 19.795 25.2C21.265 25.2 22.57 24.855 23.71 24.165C24.88 23.475 25.78 22.47 26.41 21.15H34.87C33.97 24.57 32.185 27.27 29.515 29.25C26.845 31.2 23.635 32.175 19.885 32.175C16.825 32.175 14.08 31.5 11.65 30.15C9.25 28.77 7.375 26.865 6.025 24.435C4.675 22.005 4 19.23 4 16.11ZM66.9423 0.36V31.95H59.2473V18.945H47.2773V31.95H39.5823V0.36H47.2773V12.735H59.2473V0.36H66.9423Z" fill="#FFB900"/>
</g>
<defs>
<filter id="filter0_d_65_2" x="0" y="0" width="70.9423" height="40.175" filterUnits="userSpaceOnUse" color-interpolation-filters="sRGB">
<feFlood flood-opacity="0" result="BackgroundImageFix"/>
<feColorMatrix in="SourceAlpha" type="matrix" values="0 0 0 0 0 0 0 0 0 0 0 0 0 0 0 0 0 0 127 0" result="hardAlpha"/>
<feOffset dy="4"/>
<feGaussianBlur stdDeviation="2"/>
<feComposite in2="hardAlpha" operator="out"/>
<feColorMatrix type="matrix" values="0 0 0 0 0 0 0 0 0 0 0 0 0 0 0 0 0 0 0.1 0"/>
<feBlend mode="normal" in2="BackgroundImageFix" result="effect1_dropShadow_65_2"/>
<feBlend mode="normal" in="SourceGraphic" in2="effect1_dropShadow_65_2" result="shape"/>
</filter>
</defs>
</svg>
